<?xml version="1.0" encoding="utf-8"?><svg xmlns="http://www.w3.org/2000/svg" width="284" height="53" preserveAspectRatio="xMidYMid" xmlns:xlink="http://www.w3.org/1999/xlink" style="margin-right:-2px;display:block;background-repeat-y:initial;background-repeat-x:initial;background-color:rgba(241, 242, 243, 0);animation-play-state:paused" ><style type="text/css" style="animation-play-state:paused" >text {
    text-anchor: middle; font-size: 41px; opacity: 0;
  }</style>


<g style="transform-origin:142px 26.5px;transform:matrix(0.5125, 0, 0, 0.5125, 0, 0);animation-play-state:paused" ><g transform="translate(142,26.5)" style="transform:matrix(1, 0, 0, 1, 142, 26.5);animation-play-state:paused" ><g transform="translate(0,0)" style="transform:matrix(1, 0, 0, 1, 0, 0);animation-play-state:paused" ><g class="path" style="transform-origin:-243.2px -5.21637px;animation-timing-function:linear;animation-play-state:paused;animation-name:static-1d634fe7-b692-4ace-8ce2-6a3dc4a9106a;animation-iteration-count:infinite;animation-fill-mode:forwards;animation-duration:1s;animation-delay:-0.609231s" ><path d="M2.40-4.72L6.24-11.12L6.24-11.12Q9.12-8.72 12.72-7.20L12.72-7.20L12.72-7.20Q16.32-5.68 21.12-5.68L21.12-5.68L21.12-5.68Q26.88-5.68 30.24-8.08L30.24-8.08L30.24-8.08Q33.60-10.48 33.60-14.56L33.60-14.56L33.60-14.56Q33.60-16.24 33.12-17.68L33.12-17.68L33.12-17.68Q32.64-19.12 31.24-20.44L31.24-20.44L31.24-20.44Q29.84-21.76 27.32-23.08L27.32-23.08L27.32-23.08Q24.80-24.40 20.80-25.92L20.80-25.92L20.80-25.92Q16.48-27.60 13.48-29.24L13.48-29.24L13.48-29.24Q10.48-30.88 8.64-32.84L8.64-32.84L8.64-32.84Q6.80-34.80 6-37.16L6-37.16L6-37.16Q5.20-39.52 5.20-42.56L5.20-42.56L5.20-42.56Q5.20-45.52 6.44-48.16L6.44-48.16L6.44-48.16Q7.68-50.80 10.12-52.76L10.12-52.76L10.12-52.76Q12.56-54.72 16.12-55.84L16.12-55.84L16.12-55.84Q19.68-56.96 24.24-56.96L24.24-56.96L24.24-56.96Q29.20-56.96 33.12-55.96L33.12-55.96L33.12-55.96Q37.04-54.96 40.88-53.12L40.88-53.12L38.08-46.64L38.08-46.64Q35.36-48.24 31.72-49.32L31.72-49.32L31.72-49.32Q28.08-50.40 24.08-50.40L24.08-50.40L24.08-50.40Q18.80-50.40 15.76-48.36L15.76-48.36L15.76-48.36Q12.72-46.32 12.72-42.96L12.72-42.96L12.72-42.96Q12.72-41.36 13.16-40.12L13.16-40.12L13.16-40.12Q13.60-38.88 14.92-37.72L14.92-37.72L14.92-37.72Q16.24-36.56 18.60-35.36L18.60-35.36L18.60-35.36Q20.96-34.16 24.88-32.72L24.88-32.72L24.88-32.72Q29.52-30.96 32.72-29.12L32.72-29.12L32.72-29.12Q35.92-27.28 37.84-25.20L37.84-25.20L37.84-25.20Q39.76-23.12 40.60-20.72L40.60-20.72L40.60-20.72Q41.44-18.32 41.44-15.44L41.44-15.44L41.44-15.44Q41.44-11.52 39.92-8.48L39.92-8.48L39.92-8.48Q38.40-5.44 35.72-3.32L35.72-3.32L35.72-3.32Q33.04-1.20 29.28-0.12L29.28-0.12L29.28-0.12Q25.52 0.96 21.12 0.96L21.12 0.96L21.12 0.96Q15.28 0.96 10.48-0.60L10.48-0.60L10.48-0.60Q5.68-2.16 2.40-4.72L2.40-4.72" fill="#a00d1e" stroke="none" stroke-width="none" transform="translate(-265.1199951171875,22.783628610464252)" style="transform:matrix(1, 0, 0, 1, -265.12, 22.7836);fill:rgb(160, 13, 30);animation-play-state:paused" ></path></g>
<g class="path" style="transform-origin:-195.8px -6.81637px;animation-timing-function:linear;animation-play-state:paused;animation-name:static-1d634fe7-b692-4ace-8ce2-6a3dc4a9106a;animation-iteration-count:infinite;animation-fill-mode:forwards;animation-duration:1s;animation-delay:-0.558462s" ><path d="M59.04-59.20L59.04-34.96L59.04-34.96Q61.28-38.24 64.68-40.40L64.68-40.40L64.68-40.40Q68.08-42.56 72.80-42.56L72.80-42.56L72.80-42.56Q79.84-42.56 83.32-38.32L83.32-38.32L83.32-38.32Q86.80-34.08 86.80-27.12L86.80-27.12L86.80 0L79.60 0L79.60-26.32L79.60-26.32Q79.60-30.88 77.56-33.56L77.56-33.56L77.56-33.56Q75.52-36.24 71.68-36.24L71.68-36.24L71.68-36.24Q69.84-36.24 68.04-35.56L68.04-35.56L68.04-35.56Q66.24-34.88 64.64-33.68L64.64-33.68L64.64-33.68Q63.04-32.48 61.60-30.88L61.60-30.88L61.60-30.88Q60.16-29.28 59.04-27.52L59.04-27.52L59.04 0L51.84 0L51.84-59.20L59.04-59.20" fill="#a00d1e" stroke="none" stroke-width="none" transform="translate(-265.1199951171875,22.783628610464252)" style="transform:matrix(1, 0, 0, 1, -265.12, 22.7836);fill:rgb(160, 13, 30);animation-play-state:paused" ></path></g>
<g class="path" style="transform-origin:-148.4px 1.98363px;animation-timing-function:linear;animation-play-state:paused;animation-name:static-1d634fe7-b692-4ace-8ce2-6a3dc4a9106a;animation-iteration-count:infinite;animation-fill-mode:forwards;animation-duration:1s;animation-delay:-0.507692s" ><path d="M130.08-20.80L130.08-20.80L130.08-20.80Q130.08-23.92 129.08-26.72L129.08-26.72L129.08-26.72Q128.08-29.52 126.28-31.60L126.28-31.60L126.28-31.60Q124.48-33.68 122.04-34.92L122.04-34.92L122.04-34.92Q119.60-36.16 116.72-36.16L116.72-36.16L116.72-36.16Q110.40-36.16 106.88-32L106.88-32L106.88-32Q103.36-27.84 103.36-20.96L103.36-20.96L103.36-20.96Q103.36-17.84 104.36-15L104.36-15L104.36-15Q105.36-12.16 107.16-10.04L107.16-10.04L107.16-10.04Q108.96-7.92 111.40-6.68L111.40-6.68L111.40-6.68Q113.84-5.44 116.72-5.44L116.72-5.44L116.72-5.44Q119.84-5.44 122.32-6.56L122.32-6.56L122.32-6.56Q124.80-7.68 126.52-9.72L126.52-9.72L126.52-9.72Q128.24-11.76 129.16-14.56L129.16-14.56L129.16-14.56Q130.08-17.36 130.08-20.80zM96-20.80L96-20.80L96-20.80Q96-25.84 97.60-29.88L97.60-29.88L97.60-29.88Q99.20-33.92 101.96-36.72L101.96-36.72L101.96-36.72Q104.72-39.52 108.52-41.04L108.52-41.04L108.52-41.04Q112.32-42.56 116.72-42.56L116.72-42.56L116.72-42.56Q121.04-42.56 124.84-41.04L124.84-41.04L124.84-41.04Q128.64-39.52 131.44-36.72L131.44-36.72L131.44-36.72Q134.24-33.92 135.84-29.92L135.84-29.92L135.84-29.92Q137.44-25.92 137.44-20.96L137.44-20.96L137.44-20.96Q137.44-16 135.88-11.96L135.88-11.96L135.88-11.96Q134.32-7.92 131.52-5.04L131.52-5.04L131.52-5.04Q128.72-2.16 124.92-0.60L124.92-0.60L124.92-0.60Q121.12 0.96 116.72 0.96L116.72 0.96L116.72 0.96Q112.24 0.96 108.44-0.64L108.44-0.64L108.44-0.64Q104.64-2.24 101.88-5.12L101.88-5.12L101.88-5.12Q99.12-8 97.56-12L97.56-12L97.56-12Q96-16 96-20.80" fill="#a00d1e" stroke="none" stroke-width="none" transform="translate(-265.1199951171875,22.783628610464252)" style="transform:matrix(1, 0, 0, 1, -265.12, 22.7836);fill:rgb(160, 13, 30);animation-play-state:paused" ></path></g>
<g class="path" style="transform-origin:-101.76px 10.3036px;animation-timing-function:linear;animation-play-state:paused;animation-name:static-1d634fe7-b692-4ace-8ce2-6a3dc4a9106a;animation-iteration-count:infinite;animation-fill-mode:forwards;animation-duration:1s;animation-delay:-0.456923s" ><path d="M142.24-36L143.76-41.60L143.76-41.60Q151.12-41.60 152.96-35.76L152.96-35.76L152.96-35.76Q153.52-36.64 154.68-37.84L154.68-37.84L154.68-37.84Q155.84-39.04 157.52-40.08L157.52-40.08L157.52-40.08Q159.20-41.12 161.36-41.84L161.36-41.84L161.36-41.84Q163.52-42.56 166.16-42.56L166.16-42.56L166.16-42.56Q169.76-42.56 173.08-41.12L173.08-41.12L173.08-41.12Q176.40-39.68 178.92-36.96L178.92-36.96L178.92-36.96Q181.44-34.24 182.96-30.24L182.96-30.24L182.96-30.24Q184.48-26.24 184.48-21.20L184.48-21.20L184.48-21.20Q184.48-16.24 183-12.16L183-12.16L183-12.16Q181.52-8.08 179-5.16L179-5.16L179-5.16Q176.48-2.24 173.20-0.64L173.20-0.64L173.20-0.64Q169.92 0.96 166.32 0.96L166.32 0.96L166.32 0.96Q162.56 0.96 159.40-0.52L159.40-0.52L159.40-0.52Q156.24-2 154.16-3.92L154.16-3.92L154.16 17.60L146.96 17.60L146.96-30.96L146.96-30.96Q146.96-33.68 145.64-34.84L145.64-34.84L145.64-34.84Q144.32-36 142.24-36L142.24-36zM177.12-20.96L177.12-20.96L177.12-20.96Q177.12-24.56 176.12-27.40L176.12-27.40L176.12-27.40Q175.12-30.24 173.40-32.24L173.40-32.24L173.40-32.24Q171.68-34.24 169.40-35.28L169.40-35.28L169.40-35.28Q167.12-36.32 164.56-36.32L164.56-36.32L164.56-36.32Q161.12-36.32 158.36-34.60L158.36-34.60L158.36-34.60Q155.60-32.88 154.16-30.88L154.16-30.88L154.16-10.40L154.16-10.40Q156.24-8.24 158.92-6.84L158.92-6.84L158.92-6.84Q161.60-5.44 164.88-5.44L164.88-5.44L164.88-5.44Q167.60-5.44 169.84-6.56L169.84-6.56L169.84-6.56Q172.08-7.68 173.72-9.72L173.72-9.72L173.72-9.72Q175.36-11.76 176.24-14.60L176.24-14.60L176.24-14.60Q177.12-17.44 177.12-20.96" fill="#a00d1e" stroke="none" stroke-width="none" transform="translate(-265.1199951171875,22.783628610464252)" style="transform:matrix(1, 0, 0, 1, -265.12, 22.7836);fill:rgb(160, 13, 30);animation-play-state:paused" ></path></g>
<g class="path" style="transform-origin:-54.32px 10.3036px;animation-timing-function:linear;animation-play-state:paused;animation-name:static-1d634fe7-b692-4ace-8ce2-6a3dc4a9106a;animation-iteration-count:infinite;animation-fill-mode:forwards;animation-duration:1s;animation-delay:-0.406154s" ><path d="M189.68-36L191.20-41.60L191.20-41.60Q198.56-41.60 200.40-35.76L200.40-35.76L200.40-35.76Q200.96-36.64 202.12-37.84L202.12-37.84L202.12-37.84Q203.28-39.04 204.96-40.08L204.96-40.08L204.96-40.08Q206.64-41.12 208.80-41.84L208.80-41.84L208.80-41.84Q210.96-42.56 213.60-42.56L213.60-42.56L213.60-42.56Q217.20-42.56 220.52-41.12L220.52-41.12L220.52-41.12Q223.84-39.68 226.36-36.96L226.36-36.96L226.36-36.96Q228.88-34.24 230.40-30.24L230.40-30.24L230.40-30.24Q231.92-26.24 231.92-21.20L231.92-21.20L231.92-21.20Q231.92-16.24 230.44-12.16L230.44-12.16L230.44-12.16Q228.96-8.08 226.44-5.16L226.44-5.16L226.44-5.16Q223.92-2.24 220.64-0.64L220.64-0.64L220.64-0.64Q217.36 0.96 213.76 0.96L213.76 0.96L213.76 0.96Q210 0.96 206.84-0.52L206.84-0.52L206.84-0.52Q203.68-2 201.60-3.92L201.60-3.92L201.60 17.60L194.40 17.60L194.40-30.96L194.40-30.96Q194.40-33.68 193.08-34.84L193.08-34.84L193.08-34.84Q191.76-36 189.68-36L189.68-36zM224.56-20.96L224.56-20.96L224.56-20.96Q224.56-24.56 223.56-27.40L223.56-27.40L223.56-27.40Q222.56-30.24 220.84-32.24L220.84-32.24L220.84-32.24Q219.12-34.24 216.84-35.28L216.84-35.28L216.84-35.28Q214.56-36.32 212-36.32L212-36.32L212-36.32Q208.56-36.32 205.80-34.60L205.80-34.60L205.80-34.60Q203.04-32.88 201.60-30.88L201.60-30.88L201.60-10.40L201.60-10.40Q203.68-8.24 206.36-6.84L206.36-6.84L206.36-6.84Q209.04-5.44 212.32-5.44L212.32-5.44L212.32-5.44Q215.04-5.44 217.28-6.56L217.28-6.56L217.28-6.56Q219.52-7.68 221.16-9.72L221.16-9.72L221.16-9.72Q222.80-11.76 223.68-14.60L223.68-14.60L223.68-14.60Q224.56-17.44 224.56-20.96" fill="#a00d1e" stroke="none" stroke-width="none" transform="translate(-265.1199951171875,22.783628610464252)" style="transform:matrix(1, 0, 0, 1, -265.12, 22.7836);fill:rgb(160, 13, 30);animation-play-state:paused" ></path></g>
<g class="path" style="transform-origin:-19.6px 1.98363px;animation-timing-function:linear;animation-play-state:paused;animation-name:static-1d634fe7-b692-4ace-8ce2-6a3dc4a9106a;animation-iteration-count:infinite;animation-fill-mode:forwards;animation-duration:1s;animation-delay:-0.355385s" ><path d="M249.12-41.60L249.12 0L241.92 0L241.92-41.60L249.12-41.60" fill="#a00d1e" stroke="none" stroke-width="none" transform="translate(-265.1199951171875,22.783628610464252)" style="transform:matrix(1, 0, 0, 1, -265.12, 22.7836);fill:rgb(160, 13, 30);animation-play-state:paused" ></path></g>
<g class="path" style="transform-origin:-19.6px -30.9764px;animation-timing-function:linear;animation-play-state:paused;animation-name:static-1d634fe7-b692-4ace-8ce2-6a3dc4a9106a;animation-iteration-count:infinite;animation-fill-mode:forwards;animation-duration:1s;animation-delay:-0.304615s" ><path d="M245.52-48.72L245.52-48.72L245.52-48.72Q243.44-48.72 241.96-50.20L241.96-50.20L241.96-50.20Q240.48-51.68 240.48-53.76L240.48-53.76L240.48-53.76Q240.48-56.08 241.84-57.44L241.84-57.44L241.84-57.44Q243.20-58.80 245.52-58.80L245.52-58.80L245.52-58.80Q247.60-58.80 249.08-57.32L249.08-57.32L249.08-57.32Q250.56-55.84 250.56-53.76L250.56-53.76L250.56-53.76Q250.56-51.44 249.20-50.08L249.20-50.08L249.20-50.08Q247.84-48.72 245.52-48.72" fill="#a00d1e" stroke="none" stroke-width="none" transform="translate(-265.1199951171875,22.783628610464252)" style="transform:matrix(1, 0, 0, 1, -265.12, 22.7836);fill:rgb(160, 13, 30);animation-play-state:paused" ></path></g>
<g class="path" style="transform-origin:14.28px 1.50363px;animation-timing-function:linear;animation-play-state:paused;animation-name:static-1d634fe7-b692-4ace-8ce2-6a3dc4a9106a;animation-iteration-count:infinite;animation-fill-mode:forwards;animation-duration:1s;animation-delay:-0.253846s" ><path d="M268.88-41.60L268.88-34.64L268.88-34.64Q271.12-38 274.60-40.28L274.60-40.28L274.60-40.28Q278.08-42.56 282.88-42.56L282.88-42.56L282.88-42.56Q289.92-42.56 293.40-38.32L293.40-38.32L293.40-38.32Q296.88-34.08 296.88-27.12L296.88-27.12L296.88 0L289.68 0L289.68-26.32L289.68-26.32Q289.68-30.88 287.60-33.56L287.60-33.56L287.60-33.56Q285.52-36.24 281.68-36.24L281.68-36.24L281.68-36.24Q279.84-36.24 278.08-35.56L278.08-35.56L278.08-35.56Q276.32-34.88 274.68-33.68L274.68-33.68L274.68-33.68Q273.04-32.48 271.64-30.88L271.64-30.88L271.64-30.88Q270.24-29.28 269.12-27.52L269.12-27.52L269.12 0L261.92 0L261.92-41.60L268.88-41.60" fill="#a00d1e" stroke="none" stroke-width="none" transform="translate(-265.1199951171875,22.783628610464252)" style="transform:matrix(1, 0, 0, 1, -265.12, 22.7836);fill:rgb(160, 13, 30);animation-play-state:paused" ></path></g>
<g class="path" style="transform-origin:59.96px 10.7836px;animation-timing-function:linear;animation-play-state:paused;animation-name:static-1d634fe7-b692-4ace-8ce2-6a3dc4a9106a;animation-iteration-count:infinite;animation-fill-mode:forwards;animation-duration:1s;animation-delay:-0.203077s" ><path d="M325.76-42.56L325.76-42.56L325.76-42.56Q329.36-42.56 332.20-41.36L332.20-41.36L332.20-41.36Q335.04-40.16 337.12-38.40L337.12-38.40L337.12-41.60L343.68-41.60L343.68-0.96L343.68-0.96Q343.68 4.24 342.32 7.92L342.32 7.92L342.32 7.92Q340.96 11.60 338.44 13.96L338.44 13.96L338.44 13.96Q335.92 16.32 332.40 17.44L332.40 17.44L332.40 17.44Q328.88 18.56 324.56 18.56L324.56 18.56L324.56 18.56Q320.80 18.56 317.36 17.68L317.36 17.68L317.36 17.68Q313.92 16.80 311.20 15.04L311.20 15.04L313.84 8.80L313.84 8.80Q315.76 10.32 318.32 11.32L318.32 11.32L318.32 11.32Q320.88 12.32 324.56 12.32L324.56 12.32L324.56 12.32Q330.24 12.32 333.48 9.36L333.48 9.36L333.48 9.36Q336.72 6.40 336.72-0.24L336.72-0.24L336.72-5.36L336.72-5.36Q335.12-3.44 332.12-1.72L332.12-1.72L332.12-1.72Q329.12 0 324.96 0L324.96 0L324.96 0Q321.44 0 318.08-1.40L318.08-1.40L318.08-1.40Q314.72-2.80 312.16-5.48L312.16-5.48L312.16-5.48Q309.60-8.16 308.04-12.04L308.04-12.04L308.04-12.04Q306.48-15.92 306.48-20.96L306.48-20.96L306.48-20.96Q306.48-25.60 308-29.56L308-29.56L308-29.56Q309.52-33.52 312.12-36.40L312.12-36.40L312.12-36.40Q314.72-39.28 318.24-40.92L318.24-40.92L318.24-40.92Q321.76-42.56 325.76-42.56zM326.56-6.40L326.56-6.40L326.56-6.40Q329.76-6.40 332.32-7.84L332.32-7.84L332.32-7.84Q334.88-9.28 336.48-11.20L336.48-11.20L336.48-32.96L336.48-32.96Q334.64-34.24 332.24-35.28L332.24-35.28L332.24-35.28Q329.84-36.32 326.48-36.32L326.48-36.32L326.48-36.32Q324-36.32 321.72-35.32L321.72-35.32L321.72-35.32Q319.44-34.32 317.68-32.40L317.68-32.40L317.68-32.40Q315.92-30.48 314.88-27.72L314.88-27.72L314.88-27.72Q313.84-24.96 313.84-21.36L313.84-21.36L313.84-21.36Q313.84-17.92 314.88-15.16L314.88-15.16L314.88-15.16Q315.92-12.40 317.68-10.44L317.68-10.44L317.68-10.44Q319.44-8.48 321.72-7.44L321.72-7.44L321.72-7.44Q324-6.40 326.56-6.40" fill="#a00d1e" stroke="none" stroke-width="none" transform="translate(-265.1199951171875,22.783628610464252)" style="transform:matrix(1, 0, 0, 1, -265.12, 22.7836);fill:rgb(160, 13, 30);animation-play-state:paused" ></path></g>
<g class="path" style="transform-origin:132.72px -5.21637px;animation-timing-function:linear;animation-play-state:paused;animation-name:static-1d634fe7-b692-4ace-8ce2-6a3dc4a9106a;animation-iteration-count:infinite;animation-fill-mode:forwards;animation-duration:1s;animation-delay:-0.152308s" ><path d="M385.44-28.08L385.44-28.08L385.44-28.08Q385.44-23.04 386.76-18.92L386.76-18.92L386.76-18.92Q388.08-14.80 390.44-11.84L390.44-11.84L390.44-11.84Q392.80-8.88 396.08-7.28L396.08-7.28L396.08-7.28Q399.36-5.68 403.28-5.68L403.28-5.68L403.28-5.68Q407.20-5.68 410.08-6.60L410.08-6.60L410.08-6.60Q412.96-7.52 415.68-9.12L415.68-9.12L418-2.80L418-2.80Q415.04-1.20 411.24-0.12L411.24-0.12L411.24-0.12Q407.44 0.96 402.40 0.96L402.40 0.96L402.40 0.96Q396.88 0.96 392.36-1.04L392.36-1.04L392.36-1.04Q387.84-3.04 384.56-6.76L384.56-6.76L384.56-6.76Q381.28-10.48 379.48-15.80L379.48-15.80L379.48-15.80Q377.68-21.12 377.68-27.76L377.68-27.76L377.68-27.76Q377.68-34.16 379.48-39.52L379.48-39.52L379.48-39.52Q381.28-44.88 384.64-48.76L384.64-48.76L384.64-48.76Q388-52.64 392.76-54.80L392.76-54.80L392.76-54.80Q397.52-56.96 403.36-56.96L403.36-56.96L403.36-56.96Q407.44-56.96 410.68-56.20L410.68-56.20L410.68-56.20Q413.92-55.44 416.80-54.08L416.80-54.08L414.48-47.68L414.48-47.68Q412-48.88 409.40-49.60L409.40-49.60L409.40-49.60Q406.80-50.32 403.28-50.32L403.28-50.32L403.28-50.32Q399.44-50.32 396.16-48.84L396.16-48.84L396.16-48.84Q392.88-47.36 390.48-44.48L390.48-44.48L390.48-44.48Q388.08-41.60 386.76-37.48L386.76-37.48L386.76-37.48Q385.44-33.36 385.44-28.08" fill="#a00d1e" stroke="none" stroke-width="none" transform="translate(-265.1199951171875,22.783628610464252)" style="transform:matrix(1, 0, 0, 1, -265.12, 22.7836);fill:rgb(160, 13, 30);animation-play-state:paused" ></path></g>
<g class="path" style="transform-origin:178.56px 1.98363px;animation-timing-function:linear;animation-play-state:paused;animation-name:static-1d634fe7-b692-4ace-8ce2-6a3dc4a9106a;animation-iteration-count:infinite;animation-fill-mode:forwards;animation-duration:1s;animation-delay:-0.101538s" ><path d="M422.40-20.56L422.40-20.56L422.40-20.56Q422.40-25.20 423.84-29.24L423.84-29.24L423.84-29.24Q425.28-33.28 427.88-36.24L427.88-36.24L427.88-36.24Q430.48-39.20 434.12-40.88L434.12-40.88L434.12-40.88Q437.76-42.56 442.08-42.56L442.08-42.56L442.08-42.56Q445.68-42.56 448.60-41.32L448.60-41.32L448.60-41.32Q451.52-40.08 453.68-38.24L453.68-38.24L453.68-41.60L460.24-41.60L460.24-10.08L460.24-10.08Q460.24-7.04 461.72-6.12L461.72-6.12L461.72-6.12Q463.20-5.20 464.96-5.20L464.96-5.20L463.44 0.40L463.44 0.40Q455.76 0.40 454.16-5.84L454.16-5.84L454.16-5.84Q453.20-4.56 451.96-3.32L451.96-3.32L451.96-3.32Q450.72-2.08 449.12-1.12L449.12-1.12L449.12-1.12Q447.52-0.16 445.52 0.40L445.52 0.40L445.52 0.40Q443.52 0.96 441.12 0.96L441.12 0.96L441.12 0.96Q437.20 0.96 433.80-0.56L433.80-0.56L433.80-0.56Q430.40-2.08 427.88-4.88L427.88-4.88L427.88-4.88Q425.36-7.68 423.88-11.64L423.88-11.64L423.88-11.64Q422.40-15.60 422.40-20.56zM442.72-5.44L442.72-5.44L442.72-5.44Q445.76-5.44 448.48-6.88L448.48-6.88L448.48-6.88Q451.20-8.32 453.04-10.64L453.04-10.64L453.04-32.96L453.04-32.96Q450.88-34.48 448.28-35.40L448.28-35.40L448.28-35.40Q445.68-36.32 442.80-36.32L442.80-36.32L442.80-36.32Q439.92-36.32 437.52-35.20L437.52-35.20L437.52-35.20Q435.12-34.08 433.40-32.04L433.40-32.04L433.40-32.04Q431.68-30 430.72-27.12L430.72-27.12L430.72-27.12Q429.76-24.24 429.76-20.80L429.76-20.80L429.76-20.80Q429.76-17.44 430.72-14.60L430.72-14.60L430.72-14.60Q431.68-11.76 433.44-9.72L433.44-9.72L433.44-9.72Q435.20-7.68 437.56-6.56L437.56-6.56L437.56-6.56Q439.92-5.44 442.72-5.44" fill="#a00d1e" stroke="none" stroke-width="none" transform="translate(-265.1199951171875,22.783628610464252)" style="transform:matrix(1, 0, 0, 1, -265.12, 22.7836);fill:rgb(160, 13, 30);animation-play-state:paused" ></path></g>
<g class="path" style="transform-origin:221.8px 1.50363px;animation-timing-function:linear;animation-play-state:paused;animation-name:static-1d634fe7-b692-4ace-8ce2-6a3dc4a9106a;animation-iteration-count:infinite;animation-fill-mode:forwards;animation-duration:1s;animation-delay:-0.0507692s" ><path d="M499.28-42.08L497.12-34.64L497.12-34.64Q495.60-35.28 493.52-35.28L493.52-35.28L493.52-35.28Q491.28-35.28 489.16-34.32L489.16-34.32L489.16-34.32Q487.04-33.36 485.40-31.44L485.40-31.44L485.40-31.44Q483.76-29.52 482.76-26.52L482.76-26.52L482.76-26.52Q481.76-23.52 481.76-19.44L481.76-19.44L481.76 0L474.56 0L474.56-41.60L481.52-41.60L481.52-32.56L481.52-32.56Q482.24-34.48 483.44-36.32L483.44-36.32L483.44-36.32Q484.64-38.16 486.28-39.52L486.28-39.52L486.28-39.52Q487.92-40.88 490.08-41.72L490.08-41.72L490.08-41.72Q492.24-42.56 494.88-42.56L494.88-42.56L494.88-42.56Q496.08-42.56 497.24-42.44L497.24-42.44L497.24-42.44Q498.40-42.32 499.28-42.08L499.28-42.08" fill="#a00d1e" stroke="none" stroke-width="none" transform="translate(-265.1199951171875,22.783628610464252)" style="transform:matrix(1, 0, 0, 1, -265.12, 22.7836);fill:rgb(160, 13, 30);animation-play-state:paused" ></path></g>
<g class="path" style="transform-origin:252.44px -3.33637px;animation-timing-function:linear;animation-play-state:paused;animation-name:static-1d634fe7-b692-4ace-8ce2-6a3dc4a9106a;animation-iteration-count:infinite;animation-fill-mode:forwards;animation-duration:1s" ><path d="M509.84-40.08L511.36-53.20L516.88-53.20L516.88-40.08L528.40-40.08L528.40-33.84L516.88-33.84L516.88-13.76L516.88-13.76Q516.88-11.44 517.40-9.84L517.40-9.84L517.40-9.84Q517.92-8.24 518.80-7.28L518.80-7.28L518.80-7.28Q519.68-6.32 520.92-5.88L520.92-5.88L520.92-5.88Q522.16-5.44 523.52-5.44L523.52-5.44L523.52-5.44Q525.52-5.44 527.28-6.08L527.28-6.08L527.28-6.08Q529.04-6.72 530.64-7.60L530.64-7.60L532.64-1.84L532.64-1.84Q531.04-0.88 528.32 0.04L528.32 0.04L528.32 0.04Q525.60 0.96 522.64 0.96L522.64 0.96L522.64 0.96Q516.64 0.96 513.16-2.96L513.16-2.96L513.16-2.96Q509.68-6.88 509.68-14.32L509.68-14.32L509.68-33.84L502.48-33.84L502.48-40.08L509.84-40.08" fill="#a00d1e" stroke="none" stroke-width="none" transform="translate(-265.1199951171875,22.783628610464252)" style="transform:matrix(1, 0, 0, 1, -265.12, 22.7836);fill:rgb(160, 13, 30);animation-play-state:paused" ></path></g></g></g></g></svg>
